<?xml version="1.0" encoding="utf-8"?>
<!-- Generator: Adobe Illustrator 16.0.0, SVG Export Plug-In . SVG Version: 6.00 Build 0)  -->
<!DOCTYPE svg PUBLIC "-//W3C//DTD SVG 1.1//EN" "http://www.w3.org/Graphics/SVG/1.1/DTD/svg11.dtd">
<svg version="1.1" id="Layer_1" xmlns="http://www.w3.org/2000/svg" xmlns:xlink="http://www.w3.org/1999/xlink" x="0px" y="0px"
	 width="768px" height="1024px" viewBox="0 0 768 1024" enable-background="new 0 0 768 1024" xml:space="preserve">
<g id="Layer_1_1_" display="none">
	
		<image display="inline" overflow="visible" enable-background="new    " width="1000" height="719" xlink:href="../../../../1000_F_144779208_PtaLqG2FRqoNSqbMv60XQoCd3tzyNqXd.jpg"  transform="matrix(1.4554 0 0 1.1722 13.7383 0)">
	</image>
	<ellipse display="inline" stroke="#FFFFFF" stroke-miterlimit="10" cx="600.349" cy="558.256" rx="55.814" ry="91.279"/>
</g>
<g id="Layer_2">
</g>
<line display="none" fill="none" stroke="#E94444" stroke-width="4" stroke-miterlimit="10" x1="120.667" y1="508.668" x2="92.667" y2="519.334"/>
<line display="none" fill="none" stroke="#E94444" stroke-width="4" stroke-miterlimit="10" x1="106.667" y1="526.668" x2="78.667" y2="537.334"/>
<line display="none" fill="none" stroke="#E94444" stroke-width="4" stroke-miterlimit="10" x1="128.667" y1="531.668" x2="100.667" y2="542.334"/>
<g display="none">
	<circle display="inline" fill="#E94444" cx="202.417" cy="493.932" r="44.803"/>
</g>
<g display="none">
	<path display="inline" fill="#D83131" d="M246.084,495.084c0,24.502-18.638,44.367-41.645,44.367
		c-13.591,0-29.88-7.434-37.488-18.152c3.861,1.263,12.183,2.433,16.426,2.433c22.998,0,41.645-19.866,41.645-44.368
		c0-10.031-3.129-19.282-8.389-26.711C233.686,458.194,246.084,475.102,246.084,495.084z"/>
</g>
<g display="none">
	<path display="inline" fill="#DFF6FD" d="M496.769,513.421c4.179-5.549,0.219-13.489-6.729-13.489H348.291H206.542
		c-6.949,0-10.908,7.938-6.728,13.489l122.512,162.711c6.466,8.588,9.962,19.044,9.962,29.795v130.062
		c0,27.239-18.815,51.138-45.453,56.817c-0.752,0.161-1.517,0.314-2.293,0.462c0,0-20.286,2.899-24.149,20.287h87.899h87.899
		c-3.864-17.388-24.148-20.287-24.148-20.287c-0.689-0.129-1.371-0.267-2.043-0.407c-26.746-5.639-45.706-29.534-45.706-56.869
		V705.927c0-10.751,3.497-21.207,9.962-29.795L496.769,513.421z"/>
	<path display="inline" fill="#C8EFFE" d="M496.769,513.421c4.179-5.549,0.219-13.489-6.729-13.489H348.291H206.542
		c-6.949,0-10.908,7.938-6.728,13.489l14.459,19.204l5.958,4.363l103.498,137.114c3.186,4.229,5.873,8.29,7.553,13.239
		c0.349,1.026-0.959,4.725-0.68,5.771c1.113,4.153,1.686,8.459,1.686,12.813V835.99c0,27.237-18.815,51.135-45.453,56.814
		c-0.752,0.164-1.517,0.316-2.293,0.466c0,0-20.286,2.896-24.149,20.283h87.899h87.899c-3.864-17.386-24.148-20.283-24.148-20.283
		c-0.69-0.133-1.371-0.271-2.043-0.409c-26.746-5.638-45.706-29.536-45.706-56.871V705.927c0-4.771,0.689-9.487,2.022-14.008
		c0.218-0.739-0.15-2.526,0.101-3.254c1.679-4.848,4.151-9.843,7.277-13.994l100.199-132.528l3.053-2.396L496.769,513.421z"/>
	<path display="inline" fill="#99E6FC" d="M364.292,705.924v130.063c0,27.338,18.956,51.235,45.708,56.868
		c0.667,0.143,1.35,0.284,2.04,0.416c0,0,20.287,2.896,24.148,20.279H415.46c-1.938-8.729-8.965-10.593-17.428-12.307
		c-16.644-3.373-29.66-11.383-39.797-25.837c-8.012-11.417-12.219-25.5-12.219-39.419c0-0.066,0-130.063,0-130.063
		c0-10.751,3.495-21.204,9.962-29.792L476.04,513.424c4.179-5.549,0.226-13.489-6.723-13.489h20.72
		c6.949,0,10.909,7.94,6.732,13.489L374.255,676.132C367.787,684.72,364.292,695.173,364.292,705.924z"/>
	<path display="inline" fill="#E94444" d="M477.752,538.671L374.255,676.13c-3.847,5.107-6.647,10.885-8.274,16.984l-35.38,0.003
		l-0.374-1.316c-1.661-5.612-4.333-10.929-7.9-15.671L214.28,532.625c35.117-2.106,70.948,6.422,105.168,14.322
		c43.321,9.998,90.639,18.862,132.959,4.28C461.524,548.086,470.035,543.814,477.752,538.671z"/>
	<path display="inline" fill="#D83131" d="M477.755,538.671c0,0-103.304,137.198-103.501,137.461
		c-2.197,2.919-4.103,6.105-5.593,9.453c-0.912,2.053-1.697,4.188-2.347,6.334c-0.117,0.393-0.232,0.798-0.333,1.198h-18.273
		c1.631-6.101,4.427-11.874,8.272-16.982l90.853-123.126c1.873-0.551,3.729-1.14,5.578-1.781
		C461.527,548.084,470.032,543.814,477.755,538.671L477.755,538.671z"/>
</g>
<rect x="126.317" y="704.252" transform="matrix(-0.9781 -0.2079 0.2079 -0.9781 540.6711 1567.2388)" display="none" fill="none" width="452.76" height="101.908"/>
<text transform="matrix(0.9781 0.2079 -0.2079 0.9781 123.4023 745.1426)" display="none" fill="#E94444" enable-background="new    " font-family="'MyriadPro-Regular'" font-size="124.9939">CHEERZZ</text>
<g id="Layer_3">
</g>
<g id="Layer_2_1_">
</g>
<polyline fill="none" stroke="#E94444" stroke-width="4" stroke-miterlimit="10" points="470.412,455.958 442.787,421.417 
	426.553,449.683 271.363,458.199 "/>
<circle fill="none" stroke="#E94444" stroke-width="4" stroke-miterlimit="10" cx="262.249" cy="456.363" r="10"/>
<line fill="none" stroke="#E94444" stroke-width="4" stroke-miterlimit="10" x1="262.157" y1="454.699" x2="279.599" y2="474.44"/>
<line fill="none" stroke="#E94444" stroke-width="4" stroke-miterlimit="10" x1="273.293" y1="475.119" x2="284.277" y2="474.517"/>
<line fill="none" stroke="#E94444" stroke-width="4" stroke-miterlimit="10" x1="198.145" y1="456.21" x2="252.173" y2="455.247"/>
<path fill="none" stroke="#E94444" stroke-width="4" stroke-miterlimit="10" d="M191.546,452.512l-20.926-35.52
	c0,0-3.229-10.172,4.076-10.908c7.303-0.733,38.608-2.118,38.608-2.118"/>
<polyline fill="none" stroke="#E94444" stroke-width="4" stroke-miterlimit="10" points="194.19,456.428 242.234,414.063 
	324.796,397.699 "/>
<path fill="none" stroke="#E94444" stroke-width="4" stroke-miterlimit="10" d="M303.596,370.301c0,0,17.448-2.88,22.965-1.26
	c2.184,0.641,7.299,5.275,4.119,8.121c-3.181,2.845-12.408,9.026-12.408,9.026l26.314,67.994"/>
<line fill="none" stroke="#E94444" stroke-width="4" stroke-miterlimit="10" x1="268.99" y1="448.983" x2="323.387" y2="399.404"/>
<line fill="none" stroke="#E94444" stroke-width="4" stroke-miterlimit="10" x1="264.364" y1="446.232" x2="237.683" y2="404.107"/>
<line fill="none" stroke="#E94444" stroke-width="4" stroke-miterlimit="10" x1="255.29" y1="439.051" x2="245.304" y2="439.599"/>
<line fill="none" stroke="#E94444" stroke-width="2" stroke-miterlimit="10" x1="250.353" y1="440.324" x2="255.801" y2="448.375"/>
<line fill="none" stroke="#E94444" stroke-width="2" stroke-miterlimit="10" x1="194.299" y1="458.423" x2="256.696" y2="464.666"/>
<line fill="none" stroke="#E94444" stroke-width="2" stroke-miterlimit="10" x1="201.86" y1="449.663" x2="264.228" y2="443.739"/>
<path fill="none" stroke="#E94444" stroke-width="4" stroke-miterlimit="10" d="M144.52,446.278"/>
<path fill="none" stroke="#E94444" stroke-width="4" stroke-miterlimit="10" d="M245.498,439.494
	c3.436,6.263,5.537,13.278,5.949,20.753"/>
<path fill="none" stroke="#E94444" stroke-width="4" stroke-miterlimit="10" d="M140.552,450.083
	c6.642-20.863,27.047-36.692,51.996-38.062c23.367-1.283,44.16,10.479,54.003,28.416"/>
<path fill="#E94444" stroke="#E94444" stroke-miterlimit="10" d="M216.619,397.442c0,0,1.704-5.435,7.012-6.06
	c5.307-0.625,13.81,2.245,19.126,1.788s11.649-0.651,11.649-0.651s3.079,1.347,0.157,2.842c-2.923,1.495-15.777,0.407-15.721,5.536
	c0.057,5.13,0.057,5.13,0.057,5.13s-7.206-7.64-12.848-7.048C220.408,399.57,216.619,397.442,216.619,397.442z"/>
<polygon fill="#E94444" stroke="#E94444" stroke-width="4" stroke-miterlimit="10" points="331.541,398.956 348.908,447.767 
	424.471,443.79 438.802,416.389 "/>
<line fill="#E94444" stroke="#E94444" stroke-width="2" stroke-miterlimit="10" x1="189.144" y1="453.721" x2="152.191" y2="446.779"/>
<line fill="#E94444" stroke="#E94444" stroke-width="2" stroke-miterlimit="10" x1="189.275" y1="459.198" x2="154.657" y2="473.867"/>
<line fill="#E94444" stroke="#E94444" stroke-width="2" stroke-miterlimit="10" x1="199.675" y1="456.633" x2="234.943" y2="469.663"/>
<line fill="#E94444" stroke="#E94444" stroke-width="2" stroke-miterlimit="10" x1="195.783" y1="460.998" x2="216.462" y2="486.838"/>
<line fill="#E94444" stroke="#E94444" stroke-width="2" stroke-miterlimit="10" x1="194.188" y1="456.435" x2="185.561" y2="493.03"/>
<line fill="#E94444" stroke="#E94444" stroke-width="2" stroke-miterlimit="10" x1="202.662" y1="420.393" x2="194.035" y2="456.989"/>
<ellipse transform="matrix(-0.0547 -0.9985 0.9985 -0.0547 -250.6668 675.2356)" fill="none" stroke="#E94444" stroke-width="4" stroke-miterlimit="10" cx="194.284" cy="456.269" rx="35.834" ry="43.833"/>
<ellipse transform="matrix(-0.0549 -0.9985 0.9985 -0.0549 -250.8883 675.3997)" fill="#01A48F" stroke="#E94444" stroke-miterlimit="10" cx="194.211" cy="456.441" rx="4.664" ry="5.705"/>
<line fill="#E94444" stroke="#E94444" stroke-width="2" stroke-miterlimit="10" x1="464.657" y1="455.623" x2="445.08" y2="464.559"/>
<line fill="#E94444" stroke="#E94444" stroke-width="2" stroke-miterlimit="10" x1="473.341" y1="458.024" x2="487.176" y2="471.981"/>
<line fill="#E94444" stroke="#E94444" stroke-width="2" stroke-miterlimit="10" x1="470.354" y1="450.046" x2="463.811" y2="477.802"/>
<line fill="#E94444" stroke="#E94444" stroke-width="2" stroke-miterlimit="10" x1="475.732" y1="427.676" x2="470.764" y2="450.612"/>
<line fill="#E94444" stroke="#E94444" stroke-width="2" stroke-miterlimit="10" x1="473.281" y1="453.705" x2="498.279" y2="444.553"/>
<ellipse transform="matrix(-0.0549 -0.9985 0.9985 -0.0549 41.7741 950.1281)" fill="#01A48F" stroke="#E94444" stroke-miterlimit="10" cx="470.568" cy="455.293" rx="4.664" ry="5.706"/>
<path fill="none" stroke="#E94444" stroke-width="4" stroke-miterlimit="10" d="M497.954,450.604
	c0.752,13.694-11.421,25.497-27.191,26.363c-15.768,0.866-29.16-9.535-29.912-23.23c-0.751-13.693,11.424-25.497,27.19-26.362
	C483.813,426.51,497.202,436.91,497.954,450.604z"/>
</svg>
