<?xml version="1.0" encoding="utf-8"?>
<!-- Generator: Adobe Illustrator 16.0.0, SVG Export Plug-In . SVG Version: 6.00 Build 0)  -->
<!DOCTYPE svg PUBLIC "-//W3C//DTD SVG 1.1//EN" "http://www.w3.org/Graphics/SVG/1.1/DTD/svg11.dtd">
<svg version="1.1" id="Layer_1" xmlns="http://www.w3.org/2000/svg" xmlns:xlink="http://www.w3.org/1999/xlink" x="0px" y="0px"
	 width="768px" height="1024px" viewBox="0 0 768 1024" enable-background="new 0 0 768 1024" xml:space="preserve">
<g id="Layer_1_1_" display="none">
	
		<image display="inline" overflow="visible" enable-background="new    " width="1000" height="719" xlink:href="../../../../1000_F_144779208_PtaLqG2FRqoNSqbMv60XQoCd3tzyNqXd.jpg"  transform="matrix(1.4554 0 0 1.1722 13.7383 0)">
	</image>
	<ellipse display="inline" stroke="#FFFFFF" stroke-miterlimit="10" cx="600.349" cy="558.256" rx="55.814" ry="91.279"/>
</g>
<g id="Layer_2">
</g>
<g display="none">
	<g display="inline">
		
			<ellipse transform="matrix(-0.3189 -0.9478 0.9478 -0.3189 -199.1384 836.054)" fill="none" stroke="#E94444" stroke-width="4" stroke-miterlimit="10" cx="200.834" cy="489.58" rx="35.834" ry="43.833"/>
		
			<ellipse transform="matrix(-0.319 -0.9478 0.9478 -0.319 -199.3116 836.3152)" fill="none" stroke="#E94444" stroke-miterlimit="10" cx="200.811" cy="489.765" rx="4.664" ry="5.705"/>
	</g>
	<g display="inline">
		
			<ellipse transform="matrix(-0.319 -0.9478 0.9478 -0.319 222.4608 989.8491)" fill="none" stroke="#E94444" stroke-miterlimit="10" cx="466.864" cy="414.999" rx="4.664" ry="5.706"/>
		<path fill="none" stroke="#E94444" stroke-width="4" stroke-miterlimit="10" d="M492.01,403.18
			c4.374,12.999-4.212,27.619-19.182,32.657c-14.966,5.037-30.646-1.417-35.021-14.417c-4.374-12.998,4.215-27.619,19.181-32.656
			C471.957,383.727,487.635,390.181,492.01,403.18z"/>
	</g>
	<polyline display="inline" fill="none" stroke="#E94444" stroke-width="4" stroke-miterlimit="10" points="466.891,415.681 
		431.059,389.753 422.945,421.323 275.64,470.896 	"/>
	
		<circle display="inline" fill="none" stroke="#E94444" stroke-width="4" stroke-miterlimit="10" cx="266.366" cy="471.555" r="10"/>
	
		<line display="inline" fill="none" stroke="#E94444" stroke-width="4" stroke-miterlimit="10" x1="265.834" y1="469.976" x2="287.906" y2="484.354"/>
	
		<line display="inline" fill="none" stroke="#E94444" stroke-width="4" stroke-miterlimit="10" x1="282.01" y1="486.688" x2="292.436" y2="483.181"/>
	
		<line display="inline" fill="none" stroke="#E94444" stroke-width="4" stroke-miterlimit="10" x1="204.54" y1="488.494" x2="256.357" y2="473.165"/>
	<path display="inline" fill="none" stroke="#E94444" stroke-width="4" stroke-miterlimit="10" d="M200.253,488.177l-32.695-30.146
		c0,0-5.824-8.943,1.021-11.6c6.844-2.653,36.647-12.332,36.647-12.332"/>
	<polyline display="inline" fill="none" stroke="#E94444" stroke-width="4" stroke-miterlimit="10" points="200.786,489.758 
		235.801,436.12 311.014,398.342 	"/>
	<path display="inline" fill="none" stroke="#E94444" stroke-width="4" stroke-miterlimit="10" d="M283.278,377.586
		c0,0,16.049-7.427,21.798-7.336c2.275,0.036,8.441,3.139,6.134,6.729s-9.553,12.007-9.553,12.007l43.485,58.52"/>
	
		<line display="inline" fill="none" stroke="#E94444" stroke-width="4" stroke-miterlimit="10" x1="270.896" y1="462.646" x2="310.11" y2="400.361"/>
	
		<line display="inline" fill="none" stroke="#E94444" stroke-width="4" stroke-miterlimit="10" x1="265.704" y1="461.228" x2="228.76" y2="427.737"/>
	
		<line display="inline" fill="none" stroke="#E94444" stroke-width="4" stroke-miterlimit="10" x1="255.044" y1="456.725" x2="245.566" y2="459.914"/>
	
		<line display="inline" fill="none" stroke="#E94444" stroke-width="2" stroke-miterlimit="10" x1="250.625" y1="459.268" x2="258.022" y2="465.574"/>
	
		<line display="inline" fill="none" stroke="#E94444" stroke-width="2" stroke-miterlimit="10" x1="201.423" y1="491.652" x2="263.227" y2="481.038"/>
	
		<line display="inline" fill="none" stroke="#E94444" stroke-width="2" stroke-miterlimit="10" x1="206.376" y1="481.193" x2="264.908" y2="458.86"/>
	<path display="inline" fill="none" stroke="#E94444" stroke-width="4" stroke-miterlimit="10" d="M150.208,493.215"/>
	<path display="inline" fill="none" stroke="#E94444" stroke-width="4" stroke-miterlimit="10" d="M245.724,459.762
		c4.981,5.12,8.876,11.321,11.265,18.417"/>
	<path display="inline" fill="none" stroke="#E94444" stroke-width="4" stroke-miterlimit="10" d="M147.398,497.939
		c0.841-21.879,16.289-42.574,39.97-50.544c22.18-7.465,45.355-1.67,59.623,12.994"/>
	<path display="inline" fill="#E94444" stroke="#E94444" stroke-miterlimit="10" d="M206.682,426.928c0,0,0.194-5.692,5.143-7.71
		c4.949-2.017,13.909-1.517,18.911-3.375c5.002-1.858,11.054-3.732,11.054-3.732s3.326,0.477,0.908,2.697
		c-2.418,2.22-15.098,4.597-13.676,9.526c1.422,4.93,1.422,4.93,1.422,4.93s-8.981-5.443-14.262-3.368
		C210.901,427.969,206.682,426.928,206.682,426.928z"/>
	<polygon display="inline" fill="#E94444" stroke="#E94444" stroke-width="4" stroke-miterlimit="10" points="317.85,397.756 
		347.599,440.172 419.368,416.198 425.877,385.969 	"/>
	
		<line display="inline" fill="none" stroke="#E94444" stroke-width="4" stroke-miterlimit="10" x1="120.667" y1="508.668" x2="92.667" y2="519.334"/>
	
		<line display="inline" fill="none" stroke="#E94444" stroke-width="4" stroke-miterlimit="10" x1="106.667" y1="526.668" x2="78.667" y2="537.334"/>
	
		<line display="inline" fill="none" stroke="#E94444" stroke-width="4" stroke-miterlimit="10" x1="128.667" y1="531.668" x2="100.667" y2="542.334"/>
</g>
<circle display="none" fill="none" stroke="#D83131" stroke-miterlimit="10" cx="167.333" cy="411.695" r="7.333"/>
<circle display="none" fill="none" stroke="#D83131" stroke-miterlimit="10" cx="184.95" cy="376.079" r="8.815"/>
<circle display="none" fill="none" stroke="#D83131" stroke-miterlimit="10" cx="157.421" cy="384.607" r="5.287"/>
<g display="none">
	<g display="inline">
		<circle fill="#E94444" cx="202.417" cy="493.932" r="44.803"/>
	</g>
	<g display="inline">
		<path fill="#D83131" d="M246.084,495.084c0,24.502-18.638,44.367-41.645,44.367c-13.591,0-29.88-7.434-37.488-18.152
			c3.861,1.263,12.183,2.433,16.426,2.433c22.998,0,41.645-19.866,41.645-44.368c0-10.031-3.129-19.282-8.389-26.711
			C233.686,458.194,246.084,475.102,246.084,495.084z"/>
	</g>
	<g display="inline">
		<path fill="#DFF6FD" d="M496.769,513.421c4.179-5.549,0.219-13.489-6.729-13.489H348.291H206.542
			c-6.949,0-10.908,7.938-6.728,13.489l122.512,162.711c6.466,8.588,9.962,19.044,9.962,29.795v130.062
			c0,27.239-18.815,51.138-45.453,56.817c-0.752,0.161-1.517,0.314-2.293,0.462c0,0-20.286,2.899-24.149,20.287h87.899h87.899
			c-3.864-17.388-24.148-20.287-24.148-20.287c-0.689-0.129-1.371-0.267-2.043-0.407c-26.746-5.639-45.706-29.534-45.706-56.869
			V705.927c0-10.751,3.497-21.207,9.962-29.795L496.769,513.421z"/>
		<path fill="#C8EFFE" d="M496.769,513.421c4.179-5.549,0.219-13.489-6.729-13.489H348.291H206.542
			c-6.949,0-10.908,7.938-6.728,13.489l14.459,19.204l5.958,4.363l103.498,137.114c3.186,4.229,5.873,8.29,7.553,13.239
			c0.349,1.026-0.959,4.725-0.68,5.771c1.113,4.153,1.686,8.459,1.686,12.813V835.99c0,27.237-18.815,51.135-45.453,56.814
			c-0.752,0.164-1.517,0.316-2.293,0.466c0,0-20.286,2.896-24.149,20.283h87.899h87.899c-3.864-17.386-24.148-20.283-24.148-20.283
			c-0.69-0.133-1.371-0.271-2.043-0.409c-26.746-5.638-45.706-29.536-45.706-56.871V705.927c0-4.771,0.689-9.487,2.022-14.008
			c0.218-0.739-0.15-2.526,0.101-3.254c1.679-4.848,4.151-9.843,7.277-13.994l100.199-132.528l3.053-2.396L496.769,513.421z"/>
		<path fill="#99E6FC" d="M364.292,705.924v130.063c0,27.338,18.956,51.235,45.708,56.868c0.667,0.143,1.35,0.284,2.04,0.416
			c0,0,20.287,2.896,24.148,20.279H415.46c-1.938-8.729-8.965-10.593-17.428-12.307c-16.644-3.373-29.66-11.383-39.797-25.837
			c-8.012-11.417-12.219-25.5-12.219-39.419c0-0.066,0-130.063,0-130.063c0-10.751,3.495-21.204,9.962-29.792L476.04,513.424
			c4.179-5.549,0.226-13.489-6.723-13.489h20.72c6.949,0,10.909,7.94,6.732,13.489L374.255,676.132
			C367.787,684.72,364.292,695.173,364.292,705.924z"/>
		<path fill="#E94444" d="M477.752,538.671L374.255,676.13c-3.847,5.107-6.647,10.885-8.274,16.984l-35.38,0.003l-0.374-1.316
			c-1.661-5.612-4.333-10.929-7.9-15.671L214.28,532.625c35.117-2.106,70.948,6.422,105.168,14.322
			c43.321,9.998,90.639,18.862,132.959,4.28C461.524,548.086,470.035,543.814,477.752,538.671z"/>
		<path fill="#D83131" d="M477.755,538.671c0,0-103.304,137.198-103.501,137.461c-2.197,2.919-4.103,6.105-5.593,9.453
			c-0.912,2.053-1.697,4.188-2.347,6.334c-0.117,0.393-0.232,0.798-0.333,1.198h-18.273c1.631-6.101,4.427-11.874,8.272-16.982
			l90.853-123.126c1.873-0.551,3.729-1.14,5.578-1.781C461.527,548.084,470.032,543.814,477.755,538.671L477.755,538.671z"/>
	</g>
</g>
<rect x="126.317" y="704.252" transform="matrix(-0.9781 -0.2079 0.2079 -0.9781 540.6711 1567.2388)" display="none" fill="none" width="452.76" height="101.908"/>
<text transform="matrix(0.9781 0.2079 -0.2079 0.9781 123.4023 745.1426)" fill="#E94444" font-family="'MyriadPro-Regular'" font-size="124.9939">CHEERZZ</text>
<g id="Layer_3" display="none">
</g>
</svg>
