<?xml version="1.0" encoding="utf-8"?>
<!-- Generator: Adobe Illustrator 16.0.0, SVG Export Plug-In . SVG Version: 6.00 Build 0)  -->
<!DOCTYPE svg PUBLIC "-//W3C//DTD SVG 1.1//EN" "http://www.w3.org/Graphics/SVG/1.1/DTD/svg11.dtd">
<svg version="1.1" id="Layer_1" xmlns:svgjs="http://svgjs.com/svgjs"
	 xmlns="http://www.w3.org/2000/svg" xmlns:xlink="http://www.w3.org/1999/xlink" x="0px" y="0px" width="512px" height="512px"
	 viewBox="0 0 512 512" enable-background="new 0 0 512 512" xml:space="preserve">
<g>
	<path fill="#BF3604" d="M166,300.004h271.004c6.711,0,12.598-4.438,14.414-10.883l60.004-210.004
		c1.289-4.527,0.406-9.391-2.434-13.152c-2.844-3.75-7.266-5.965-11.984-5.965H131.371l-10.723-48.25C119.125,4.879,113.031,0,106,0
		H15C6.711,0,0,6.711,0,15c0,8.293,6.711,15,15,15h78.961l54.168,243.75C132.191,280.68,121,296.543,121,315.004
		c0,24.813,20.188,45,45,45h271.004c8.293,0,15-6.707,15-15c0-8.289-6.707-15-15-15H166c-8.262,0-15-6.723-15-15
		S157.738,300.004,166,300.004z"/>
	<path fill="#BF3604" d="M151,405.004c0,24.816,20.188,45,45.004,45c24.813,0,45-20.184,45-45c0-24.813-20.188-45-45-45
		C171.188,360.004,151,380.191,151,405.004z"/>
	<path fill="#BF3604" d="M362.004,405.004c0,24.816,20.188,45,45,45c24.816,0,45-20.184,45-45c0-24.813-20.184-45-45-45
		C382.191,360.004,362.004,380.191,362.004,405.004z"/>
</g>
<circle fill="#10AC97" cx="421.5" cy="72.5" r="68"/>
</svg>
