<?xml version="1.0" encoding="utf-8"?>
<!-- Generator: Adobe Illustrator 16.0.0, SVG Export Plug-In . SVG Version: 6.00 Build 0)  -->
<!DOCTYPE svg PUBLIC "-//W3C//DTD SVG 1.1//EN" "http://www.w3.org/Graphics/SVG/1.1/DTD/svg11.dtd">
<svg version="1.1" id="Layer_1" xmlns="http://www.w3.org/2000/svg" xmlns:xlink="http://www.w3.org/1999/xlink" x="0px" y="0px"
	 width="380px" height="50px" viewBox="0 0 380 50" enable-background="new 0 0 380 50" xml:space="preserve">
<g>
	<g>
		
			<image overflow="visible" width="512" height="512" xlink:href="../../../../../Downloads/building.png"  transform="matrix(0.0527 0 0 0.0527 11.6821 20.7588)">
		</image>
		
			<image overflow="visible" width="512" height="512" xlink:href="../../../../png/006-flat.png"  transform="matrix(0.04 0 0 0.04 101.4087 26.7686)">
		</image>
		
			<image overflow="visible" width="512" height="512" xlink:href="../../../../png/025-house.png"  transform="matrix(0.0333 0 0 0.0333 129.7617 29.9844)">
		</image>
		
			<image overflow="visible" width="512" height="512" xlink:href="../../../../png/048-house.png"  transform="matrix(0.0351 0 0 0.0382 151.771 27.2119)">
		</image>
		
			<image overflow="visible" width="512" height="512" xlink:href="../../../../png trees/046-tree.png"  transform="matrix(0.0303 0 0 0.0303 170.9575 31.2666)">
		</image>
	</g>
	<g>
		
			<image overflow="visible" width="512" height="512" xlink:href="../../../../../Downloads/building.png"  transform="matrix(-0.0527 0 0 0.0527 362.9902 20.7588)">
		</image>
		
			<image overflow="visible" width="512" height="512" xlink:href="../../../../png/006-flat.png"  transform="matrix(-0.04 0 0 0.04 273.2627 26.7686)">
		</image>
		
			<image overflow="visible" width="512" height="512" xlink:href="../../../../png/025-house.png"  transform="matrix(-0.0333 0 0 0.0333 244.9102 29.9844)">
		</image>
		
			<image overflow="visible" width="512" height="512" xlink:href="../../../../png/048-house.png"  transform="matrix(-0.0351 0 0 0.0382 222.9004 27.2119)">
		</image>
		
			<image overflow="visible" width="512" height="512" xlink:href="../../../../png trees/046-tree.png"  transform="matrix(-0.0303 0 0 0.0303 203.7148 31.2666)">
		</image>
	</g>
</g>
</svg>
