<?xml version="1.0" encoding="utf-8"?>
<!-- Generator: Adobe Illustrator 16.0.0, SVG Export Plug-In . SVG Version: 6.00 Build 0)  -->
<!DOCTYPE svg PUBLIC "-//W3C//DTD SVG 1.1//EN" "http://www.w3.org/Graphics/SVG/1.1/DTD/svg11.dtd">
<svg version="1.1" id="Layer_1" xmlns="http://www.w3.org/2000/svg" xmlns:xlink="http://www.w3.org/1999/xlink" x="0px" y="0px"
	 width="1920px" height="200px" viewBox="0 0 1920 200" enable-background="new 0 0 1920 200" xml:space="preserve">
<g>
	<g>
		
			<image overflow="visible" width="512" height="512" xlink:href="../../../../../Downloads/building.png"  transform="matrix(0.2892 0 0 0.2892 -3.5762 36.1831)">
		</image>
		
			<image overflow="visible" width="512" height="512" xlink:href="../../../../png/006-flat.png"  transform="matrix(0.2194 0 0 0.2194 488.9932 69.1743)">
		</image>
		
			<image overflow="visible" width="512" height="512" xlink:href="../../../../png/025-house.png"  transform="matrix(0.1828 0 0 0.1828 644.6416 86.832)">
		</image>
		
			<image overflow="visible" width="512" height="512" xlink:href="../../../../png/048-house.png"  transform="matrix(0.1924 0 0 0.2099 765.4678 71.6084)">
		</image>
		
			<image overflow="visible" width="512" height="512" xlink:href="../../../../png trees/046-tree.png"  transform="matrix(0.1664 0 0 0.1664 870.7949 93.8677)">
		</image>
	</g>
	<g>
		
			<image overflow="visible" width="512" height="512" xlink:href="../../../../../Downloads/building.png"  transform="matrix(-0.2892 0 0 0.2892 1925 36.1831)">
		</image>
		
			<image overflow="visible" width="512" height="512" xlink:href="../../../../png/006-flat.png"  transform="matrix(-0.2194 0 0 0.2194 1432.4209 69.1743)">
		</image>
		
			<image overflow="visible" width="512" height="512" xlink:href="../../../../png/025-house.png"  transform="matrix(-0.1828 0 0 0.1828 1276.7773 86.832)">
		</image>
		
			<image overflow="visible" width="512" height="512" xlink:href="../../../../png/048-house.png"  transform="matrix(-0.1924 0 0 0.2099 1155.9521 71.6084)">
		</image>
		
			<image overflow="visible" width="512" height="512" xlink:href="../../../../png trees/046-tree.png"  transform="matrix(-0.1664 0 0 0.1664 1050.6289 93.8677)">
		</image>
	</g>
</g>
</svg>
